<?xml version="1.0" encoding="UTF-8"?> <svg xmlns="http://www.w3.org/2000/svg" width="365" height="153" viewBox="0 0 365 153" fill="none"><g clip-path="url(#clip0_2_143)"><path d="M14.73 141.77C14.73 140.14 13.56 139.01 11.84 139.01H8.03999V144.52H11.84C13.55 144.52 14.73 143.39 14.73 141.76V141.77ZM6.23999 151.88V137.4H12.06C14.97 137.4 16.6 139.4 16.6 141.76C16.6 144.12 14.93 146.12 12.06 146.12H8.03999V151.87H6.23999V151.88Z" fill="#002060"></path><path d="M36.48 144.66C36.48 141.27 34.4 138.78 31.16 138.78C27.92 138.78 25.84 141.28 25.84 144.66C25.84 148.04 27.9 150.54 31.16 150.54C34.42 150.54 36.48 148.02 36.48 144.66ZM23.98 144.66C23.98 140.38 26.87 137.17 31.16 137.17C35.45 137.17 38.35 140.38 38.35 144.66C38.35 148.94 35.44 152.15 31.16 152.15C26.88 152.15 23.98 148.94 23.98 144.66Z" fill="#002060"></path><path d="M46.75 151.89V137.41H48.55V150.28H55.28V151.89H46.75Z" fill="#002060"></path><path d="M65.2 137.41H63.4V151.89H65.2V137.41Z" fill="#002060"></path><path d="M77.75 151.89V139.02H73.17V137.41H84.16V139.02H79.55V151.89H77.75Z" fill="#002060"></path><path d="M92.13 151.89V137.41H101.61V139.02H93.93V143.68H101.46V145.29H93.93V150.28H101.61V151.89H92.13Z" fill="#002060"></path><path d="M109.47 144.66C109.47 140.21 112.75 137.17 116.92 137.17C119.48 137.17 121.26 138.41 122.41 140.04L120.89 140.89C120.06 139.67 118.57 138.78 116.92 138.78C113.75 138.78 111.34 141.21 111.34 144.66C111.34 148.11 113.75 150.54 116.92 150.54C118.57 150.54 120.07 149.67 120.89 148.43L122.43 149.28C121.21 150.93 119.48 152.15 116.92 152.15C112.75 152.15 109.47 149.11 109.47 144.66Z" fill="#002060"></path><path d="M140.56 151.89L132.12 140.34V151.89H130.31V137.41H132.16L140.5 148.72V137.41H142.3V151.89H140.56Z" fill="#002060"></path><path d="M153.07 137.41H151.27V151.89H153.07V137.41Z" fill="#002060"></path><path d="M161.45 144.66C161.45 140.21 164.73 137.17 168.9 137.17C171.46 137.17 173.24 138.41 174.39 140.04L172.87 140.89C172.04 139.67 170.55 138.78 168.9 138.78C165.73 138.78 163.32 141.21 163.32 144.66C163.32 148.11 165.73 150.54 168.9 150.54C170.55 150.54 172.05 149.67 172.87 148.43L174.41 149.28C173.19 150.93 171.46 152.15 168.9 152.15C164.73 152.15 161.45 149.11 161.45 144.66Z" fill="#002060"></path><path d="M194.21 144.66C194.21 141.27 192.13 138.78 188.89 138.78C185.65 138.78 183.57 141.28 183.57 144.66C183.57 148.04 185.63 150.54 188.89 150.54C192.15 150.54 194.21 148.02 194.21 144.66ZM181.71 144.66C181.71 140.38 184.6 137.17 188.9 137.17C193.2 137.17 196.08 140.38 196.08 144.66C196.08 148.94 193.17 152.15 188.9 152.15C184.63 152.15 181.71 148.94 181.71 144.66Z" fill="#002060"></path><path d="M226.17 144.66C226.17 141.53 224.19 139.02 220.61 139.02H217.46V150.29H220.61C224.13 150.29 226.17 147.77 226.17 144.67V144.66ZM215.66 151.9V137.42H220.61C225.1 137.42 228.03 140.57 228.03 144.67C228.03 148.77 225.1 151.9 220.61 151.9H215.66Z" fill="#002060"></path><path d="M238.24 137.41H236.44V151.89H238.24V137.41Z" fill="#002060"></path><path d="M270.76 151.89V139.97L265.83 151.89H265.09L260.19 139.97V151.89H258.39V137.41H260.97L265.46 148.31L269.98 137.41H272.56V151.89H270.76Z" fill="#002060"></path><path d="M283.33 137.41H281.53V151.89H283.33V137.41Z" fill="#002060"></path><path d="M292.3 151.89V137.41H294.1V150.28H300.83V151.89H292.3Z" fill="#002060"></path><path d="M314.4 139.28L311.32 147.07H317.46L314.4 139.28ZM319.28 151.89L318 148.68H310.79L309.51 151.89H307.45L313.27 137.41H315.51L321.35 151.89H319.29H319.28Z" fill="#002060"></path><path d="M339.06 151.89L330.62 140.34V151.89H328.82V137.41H330.66L339 148.72V137.41H340.8V151.89H339.06Z" fill="#002060"></path><path d="M361.69 144.66C361.69 141.27 359.61 138.78 356.37 138.78C353.13 138.78 351.05 141.28 351.05 144.66C351.05 148.04 353.11 150.54 356.37 150.54C359.63 150.54 361.69 148.02 361.69 144.66ZM349.19 144.66C349.19 140.38 352.08 137.17 356.38 137.17C360.68 137.17 363.56 140.38 363.56 144.66C363.56 148.94 360.65 152.15 356.38 152.15C352.11 152.15 349.19 148.94 349.19 144.66Z" fill="#002060"></path><path d="M0 50.74C0 24.26 19.76 6.17004 45.21 6.17004C62.65 6.17004 73.37 15.21 79.83 25.55L66.91 32.14C62.78 25.04 54.51 19.61 45.21 19.61C28.16 19.61 15.5 32.66 15.5 50.74C15.5 68.82 28.16 81.87 45.21 81.87C54.51 81.87 62.78 76.57 66.91 69.34L79.83 75.93C73.24 86.26 62.65 95.31 45.21 95.31C19.76 95.3 0 77.22 0 50.74Z" fill="#002060"></path><path d="M119.39 37.06C106.94 37.06 101.27 46.6 100.58 54.76H138.19C137.91 46.88 132.52 37.06 119.38 37.06H119.39ZM85.5 60.15C85.5 40.79 99.61 25.16 119.38 25.16C139.15 25.16 152.29 40.51 152.29 61.53V64.99H100.71C101.82 75.08 109.42 83.38 122.01 83.38C128.51 83.38 136.25 80.75 140.96 76.05L147.6 85.59C140.96 91.95 131.14 95.27 120.5 95.27C100.45 95.27 85.51 81.3 85.51 60.14" fill="#002060"></path><path d="M167.22 93.62V39.55H156.16V26.83H167.22V23.1C167.22 8.58001 175.66 0.0100098 188.38 0.0100098C194.33 0.0100098 200.27 1.53001 204.42 5.82001L198.75 14.81C196.81 13.01 194.32 11.91 191.01 11.91C185.34 11.91 181.74 15.64 181.74 23.11V26.84H195.29V39.56H181.74V93.63H167.22V93.62Z" fill="#002060"></path><path d="M205.04 93.6201V26.8301H219.56V36.6501C224.54 30.2901 232.56 25.3101 241.27 25.3101V39.6901C240.03 39.4201 238.51 39.2801 236.71 39.2801C230.63 39.2801 222.47 43.4301 219.56 48.1301V93.6301H205.04V93.6201Z" fill="#002060"></path><path d="M249.95 26.8299H264.47V93.6199H249.95V26.8299ZM248.15 9.67994C248.15 4.69994 252.3 0.689941 257.14 0.689941C261.98 0.689941 266.13 4.69994 266.13 9.67994C266.13 14.6599 262.12 18.6699 257.14 18.6699C252.16 18.6699 248.15 14.6599 248.15 9.67994Z" fill="#002060"></path><path d="M308.44 37.06C295.99 37.06 290.32 46.6 289.63 54.76H327.24C326.96 46.88 321.57 37.06 308.43 37.06H308.44ZM274.55 60.15C274.55 40.79 288.66 25.16 308.43 25.16C328.2 25.16 341.34 40.51 341.34 61.53V64.99H289.76C290.87 75.08 298.47 83.38 311.06 83.38C317.56 83.38 325.3 80.75 330 76.05L336.64 85.59C330 91.95 320.18 95.27 309.54 95.27C289.49 95.27 274.55 81.3 274.55 60.14" fill="#002060"></path><path d="M364.34 1.38H349.82V93.62H364.34V1.38Z" fill="#002060"></path><path d="M76.48 108.36H6.22V122.88H76.48V108.36Z" fill="#FFDC06"></path></g><defs><clipPath id="clip0_2_143"><rect width="364.34" height="152.15" fill="white"></rect></clipPath></defs></svg> 